<svg width="258" height="254" viewBox="0 0 258 254" fill="none" xmlns="http://www.w3.org/2000/svg">
<path d="M78.276 137.849C76.5248 144.415 79.4315 151.621 84.6977 153.769C93.4577 157.342 101.465 152.788 104.642 142.428C105.139 140.806 107.383 140.667 133.124 140.667H161.067V127.519C161.067 120.287 161.451 113.608 161.921 112.676C162.481 111.565 162.104 109.461 160.829 106.571L158.883 102.162L156.442 104.626C154.322 106.766 154.141 107.465 155.068 109.926C155.696 111.595 155.928 116.533 155.631 121.934C155.353 126.979 155.117 131.673 155.106 132.365C155.031 137.143 143.913 132.977 134.188 124.527C123.658 115.379 117.32 114.515 113.627 121.724C111.813 125.264 112.255 126.164 115.062 124.647C119.757 122.111 126.686 124.772 132.436 131.322C134.653 133.847 130.548 134.629 115.074 134.629H105.244V124.718C105.244 119.267 104.958 111.382 104.607 107.197L103.97 99.5868L101.377 102.697L98.7843 105.808L99.1129 122.986C99.5524 145.955 98.8949 147.711 89.8569 147.711C84.0599 147.711 81.8005 144.865 81.9291 137.726C82.0563 130.663 80.176 130.726 78.276 137.849Z" fill="#052F43"/>
<path d="M168.099 107.962L168.072 124.817C168.042 143.493 175.68 147.686 179.22 142.428C180.277 140.857 179.462 139.021 178.189 136.151C176.503 132.353 174.014 126.743 173.999 117.54L173.972 100.918L171.035 104.44L168.099 107.962Z" fill="#052F43"/>
<path fill-rule="evenodd" clip-rule="evenodd" d="M109.795 235.126C116.053 239.331 122.491 244.178 124.101 245.898C127.765 249.81 129.511 249.823 133.17 245.968C134.765 244.287 140.793 239.684 146.565 235.738C172.024 218.334 176.553 209.392 172.203 185.123C172.014 184.07 171.834 183.144 171.676 182.331C171.114 179.441 170.83 177.979 171.421 177.326C172.028 176.657 173.553 176.837 176.642 177.202C177.49 177.302 178.456 177.416 179.554 177.531C202.8 179.952 208.135 177.39 233.871 151.446L253.303 131.858L234.588 112.909C209.013 87.0137 202.832 84.0901 179.488 86.8466C178.321 86.9844 177.303 87.1219 176.417 87.2414C173.483 87.6375 172.011 87.8363 171.408 87.1981C170.801 86.5553 171.076 85.0637 171.628 82.0698C171.793 81.173 171.983 80.1414 172.182 78.9574C175.984 56.3065 173.818 51.5111 148.096 25.623L128.599 6L108.328 26.6293C82.7851 52.6231 80.0216 59.1942 85.2809 81.4314C85.3872 81.8808 85.4881 82.3008 85.5823 82.6928C86.2654 85.5355 86.5961 86.9117 86.077 87.4448C85.5899 87.9451 84.3543 87.7028 81.959 87.233C81.607 87.1639 81.23 87.09 80.8266 87.0127C70.2117 84.9805 57.1874 86.2261 48.1473 90.1379C44.7325 91.6156 38.3768 97.2961 23.7643 111.93L4 131.724L22.7131 150.715C48.8267 177.216 50.4806 178.086 73.4619 177.408C85.0528 177.066 86.7196 177.214 86.3366 178.553C78.8493 204.731 84.3686 218.041 109.795 235.126ZM142.287 233.315C168.34 214.641 171.685 207.543 166.626 181.666C166.379 180.404 166.148 179.282 165.943 178.285C165.092 174.153 164.685 172.176 165.458 171.403C166.168 170.693 167.871 170.996 171.135 171.577C171.994 171.73 172.961 171.902 174.047 172.08C198.626 176.107 204.165 173.846 229.27 149.537C231.442 147.434 233.365 145.602 235.054 143.993C242.349 137.043 245.286 134.244 245.064 131.731C244.914 130.037 243.329 128.472 240.675 125.853C239.763 124.953 238.725 123.929 237.576 122.732C208.031 91.9584 201.887 88.8954 175.934 92.0003C174.832 92.1322 173.832 92.2601 172.928 92.3759C168.559 92.9351 166.404 93.2108 165.57 92.2803C164.758 91.3752 165.196 89.3285 166.059 85.2909C166.243 84.4315 166.446 83.4819 166.66 82.4339C171.374 59.3821 169.451 54.5854 145.491 29.6483L128.57 12.0379L112.671 28.4456C87.3855 54.5389 85.4991 59.2696 90.7745 83.3576C93.0881 93.9219 93.0116 94.1446 87.5357 92.796C71.8598 88.9353 52.8729 91.8575 43.4864 99.5755C38.6264 103.572 35.2052 106.949 17.8573 124.878L10.9118 132.057L27.9512 149.03C51.9623 172.948 57.4452 175.356 80.8012 172.242C82.202 172.055 83.4465 171.877 84.5493 171.718C89.105 171.065 91.244 170.758 92.0037 171.649C92.6762 172.438 92.2682 174.166 91.4992 177.422C91.2888 178.312 91.0515 179.317 90.8018 180.449C85.262 205.556 89.0807 214.74 111.806 230.962C117.506 235.031 123.438 239.401 124.988 240.673C125.299 240.929 125.57 241.168 125.816 241.384C126.441 241.935 126.9 242.34 127.432 242.499C128.912 242.94 130.951 241.472 138.664 235.919C139.753 235.135 140.956 234.269 142.287 233.315Z" fill="#052F43"/>
<path d="M40.1632 175.436C39.3212 175.436 39.425 224.099 40.2688 224.942C41.3005 225.973 89.8036 225.791 89.8036 224.756C89.8036 221.494 85.5923 220.195 75.9954 220.496C70.6394 220.664 61.4301 220.713 55.5304 220.606L44.8037 220.41V199.006C44.8037 176.859 44.5235 175.436 40.1632 175.436Z" fill="#052F43"/>
<path d="M168.302 225.048C168.302 225.889 216.993 225.785 217.837 224.942C218.869 223.911 218.686 175.436 217.651 175.436C214.387 175.436 213.087 179.645 213.389 189.236C213.557 194.589 213.606 203.793 213.498 209.689L213.302 220.41L191.886 220.41C169.726 220.41 168.302 220.69 168.302 225.048Z" fill="#052F43"/>
<path d="M217.943 90.7085C218.785 90.7085 218.681 42.0457 217.837 41.2024C216.805 40.1713 168.302 40.354 168.302 41.389C168.302 44.6504 172.514 45.9494 182.111 45.6484C187.467 45.4803 196.676 45.431 202.576 45.5388L213.302 45.7347L213.302 67.1389C213.302 89.2855 213.582 90.7085 217.943 90.7085Z" fill="#052F43"/>
<path d="M40.1632 90.7085C39.3212 90.7085 39.425 42.0457 40.2688 41.2024C41.3005 40.1713 89.8036 40.354 89.8036 41.389C89.8036 44.6504 85.5923 45.9494 75.9954 45.6484C70.6394 45.4803 61.4301 45.431 55.5304 45.5388L44.8037 45.7347L44.8037 67.1389C44.8037 89.2855 44.5235 90.7085 40.1632 90.7085Z" fill="#052F43"/>
<path d="M186.824 138.932C195.65 146.089 203.22 155.124 205.593 161.334C207.589 166.556 208.252 166.966 210.718 164.501C213.953 161.268 206.636 149.538 195.038 139.362L188.303 133.452L193.275 129.149C201.492 122.037 206.887 115.758 209.909 109.788L212.771 104.136L210.296 102.134L207.822 100.131L205.977 104.99C203.093 112.583 193.549 123.322 182.751 131.125L179.814 133.247L186.824 138.932Z" fill="#052F43"/>
<path d="M68.2884 137.886C60.303 145.043 53.4544 154.078 51.3074 160.288C49.5019 165.511 48.9021 165.92 46.6704 163.455C43.7442 160.222 50.3636 148.493 60.8566 138.316L66.9504 132.406L62.4521 128.103C55.0178 120.991 50.1368 114.712 47.4026 108.742L44.8137 103.09L47.0524 101.088L49.2909 99.0852L50.9605 103.944C53.5698 111.537 62.2041 122.276 71.9737 130.079L74.6308 132.202L68.2884 137.886Z" fill="#052F43"/>
<path d="M123.136 70.2512C115.975 62.2705 106.935 55.4258 100.721 53.28C95.4957 51.4756 95.0859 50.8761 97.5525 48.6458C100.787 45.7212 112.524 52.3368 122.706 62.8237L128.619 68.914L132.925 64.4182C140.041 56.9883 146.324 52.1102 152.297 49.3775L157.953 46.7902L159.956 49.0275L161.96 51.2647L157.098 52.9333C149.501 55.5411 138.755 64.1704 130.948 73.9343L128.824 76.5899L123.136 70.2512Z" fill="#052F43"/>
<path d="M123.136 193.28C115.975 201.26 106.935 208.105 100.721 210.251C95.4959 212.055 95.086 212.655 97.5526 214.885C100.787 217.81 112.524 211.194 122.706 200.707L125.73 197.593C127.309 195.967 129.921 195.976 131.489 197.613L132.925 199.113C140.041 206.543 146.324 211.421 152.297 214.153L156.693 216.164C157.502 216.534 158.422 216.58 159.264 216.291L159.777 216.115C160.529 215.857 161.107 215.248 161.325 214.484C161.681 213.241 161.001 211.937 159.778 211.517L157.099 210.598C149.501 207.99 138.756 199.36 130.948 189.597C129.836 188.206 127.742 188.147 126.553 189.472L123.136 193.28Z" fill="#052F43"/>
<path d="M71.5126 58.5091C71.5126 56.2863 76.0916 49.88 77.3444 50.3502C78.0769 50.6249 79.2138 50.8498 79.8708 50.8498C80.6615 50.8498 80.9365 52.3154 80.684 55.1837L80.3026 59.5175H75.9076C73.4903 59.5175 71.5126 59.0637 71.5126 58.5091Z" fill="#CC9033"/>
<path d="M57.1246 61.068C56.7353 59.9689 55.8439 59.6016 54.6018 60.0287C53.5454 60.392 52.3871 60.1739 52.0278 59.544C51.6685 58.9141 50.9053 58.713 50.3318 59.097C47.8141 60.7829 46.3029 51.0445 48.7627 48.9857C50.2779 47.7175 58.5127 48.5027 58.5127 49.9153C58.5127 50.4677 59.5252 51.4013 60.7627 51.9899C62.5205 52.8259 61.9308 52.9606 58.0671 52.6059C54.6025 52.2878 53.6293 52.4597 54.8171 53.1799C55.7497 53.7454 56.5127 55.1436 56.5127 56.2871C56.5127 57.6978 56.999 58.1639 58.0255 57.7372C59.8027 56.9983 62.5127 59.1351 62.5127 61.2754C62.5127 63.3502 57.8696 63.1715 57.1246 61.068Z" fill="#01B2A6"/>
<path d="M50.5854 69.6641C48.4477 66.7197 47.9532 64.9458 49.2628 64.9199C49.6753 64.9112 51.0486 64.6046 52.3145 64.2372C54.3704 63.6405 54.5487 63.861 53.9835 66.3006C53.6273 67.8386 53.8231 69.3484 54.4318 69.756C55.9815 70.7937 55.7652 72.5189 54.0854 72.5189C53.3003 72.5189 51.7253 71.2343 50.5854 69.6641Z" fill="#037DBC"/>
<path d="M69.5127 72.5189C69.5127 71.923 67.4877 71.4354 65.0127 71.4354C61.848 71.4354 60.5127 70.9907 60.5127 69.9366C60.5127 69.1123 59.6109 68.1823 58.5086 67.87C57.1716 67.4911 56.7079 66.7277 57.1156 65.5767C57.9311 63.2743 61.167 63.3788 62.4016 65.7473C63.2547 67.3841 63.6034 67.0925 64.9513 63.6152C66.9875 58.3622 66.9292 57.7213 64.3483 56.99C62.6612 56.512 62.4314 56.0535 63.3064 54.9112C63.9238 54.1051 64.1779 52.4053 63.871 51.1337C63.3869 49.128 63.7236 48.8344 66.4128 48.9171C68.5895 48.9842 69.5127 49.5443 69.5127 50.798C69.5127 51.7799 70.0527 53.1684 70.7127 53.8835C71.646 54.8947 71.5392 55.1836 70.2318 55.1836C67.8908 55.1836 67.039 59.8518 68.6573 63.8128C70.348 67.9513 71.1042 67.9603 71.8627 63.8512C72.8435 58.5378 78.5127 60.0904 78.5127 65.6724C78.5127 68.3011 74.9066 70.0798 72.0149 68.8776C71.1887 68.5341 70.5127 68.7253 70.5127 69.3025C70.5127 69.8797 70.9627 70.3519 71.5127 70.3519C72.0627 70.3519 72.5127 71.0832 72.5127 71.9771C72.5127 72.8709 71.8377 73.6023 71.0127 73.6023C70.1877 73.6023 69.5127 73.1148 69.5127 72.5189Z" fill="#052F43"/>
<path d="M71.2098 81.4575C70.245 79.5944 69.5299 74.6812 70.2417 74.8067C72.5328 75.2104 74.5125 74.5219 74.5125 73.3213C74.5125 72.5708 75.492 71.294 76.6891 70.484C79.065 68.8764 81.5125 70.9779 81.5125 74.6256C81.5125 78.5476 72.7215 84.3771 71.2098 81.4575Z" fill="#035482"/>
<path d="M61.4486 81.1436C59.8569 80.0778 60.7002 75.6612 62.7628 74.2603C65.1418 72.6445 67.9194 74.607 68.3175 78.1847C68.6336 81.0257 64.1542 82.9552 61.4486 81.1436Z" fill="#037DBC"/>
<path d="M50.9454 81.1894C50.9084 79.6982 50.5222 77.1372 50.087 75.4985C49.4575 73.1278 49.6245 72.519 50.9042 72.519C51.7888 72.519 52.5126 73.0065 52.5126 73.6024C52.5126 74.1983 53.3609 74.6859 54.3976 74.6859C56.5698 74.6859 59.907 79.5939 59.163 81.6944C58.1134 84.658 51.0206 84.2222 50.9454 81.1894Z" fill="#CC9033"/>
<path d="M79.5497 84.1828C79.7468 83.5422 80.3355 83.0181 80.858 83.0181C81.3805 83.0181 81.9693 83.5422 82.1664 84.1828C82.3635 84.8234 81.7747 85.3475 80.858 85.3475C79.9413 85.3475 79.3526 84.8234 79.5497 84.1828Z" fill="#01B2A6"/>
<path d="M124.595 28.8542C121.19 27.4801 121.223 26.6024 124.841 22.3475L128.243 18.3475L131.894 22.5656C134.15 25.1708 135.139 26.3132 134.898 27.0579C134.71 27.6394 133.772 27.9783 132.101 28.5819C132.042 28.6031 131.983 28.6247 131.922 28.6466C128.115 30.0232 127.534 30.0397 124.595 28.8542Z" fill="#037DBC"/>
<path d="M143.743 45.0603C140.962 44.5147 138.292 40.8771 138.265 37.5976C138.233 33.6323 142.269 33.8737 146.623 38.0976L149.973 41.3476L147.858 43.4001C146.688 44.5355 144.849 45.2773 143.743 45.0603Z" fill="#052F43"/>
<path d="M108.53 43.2456L106.512 40.9794L109.675 37.9135C113.715 33.9973 118.243 33.6595 118.243 37.2743C118.243 38.7445 118.933 39.8812 119.993 40.1583C121.119 40.4525 120.804 40.657 119.11 40.7316C117.447 40.8048 116.297 41.5327 115.99 42.7061C115.231 45.6101 110.914 45.9223 108.53 43.2456Z" fill="#01B2A6"/>
<path d="M133.736 49.825C133.383 48.7127 133.403 46.3502 133.78 44.575L134.466 41.3475L128.198 47.2644L125.03 44.0957C122.112 41.1775 121.984 40.7856 123.422 39.1373C125.342 36.9349 124.728 34.8475 122.16 34.8475C120.768 34.8475 120.243 34.1436 120.243 32.278C120.243 28.8153 124.574 29.1544 125.07 32.6559C125.339 34.5511 125.658 34.7482 126.852 33.7575C128.018 32.7898 128.59 32.9268 129.743 34.4491C131.106 36.2502 131.181 36.2084 131.211 33.6327C131.242 31.0018 134.262 28.1996 135.612 29.5494C136.82 30.7577 136.244 34.8475 134.866 34.8475C130.326 34.8475 131.355 38.9847 136.743 42.3986C138.393 43.4441 140.103 44.8728 140.543 45.5735C140.983 46.2742 141.974 46.8475 142.745 46.8475C143.705 46.8475 143.416 47.6371 141.831 49.3475C138.964 52.441 134.647 52.6956 133.736 49.825Z" fill="url(#paint0_linear_21_174)"/>
<path d="M114.464 49.3867C112.044 46.6039 111.577 45.3182 113.394 46.4412C114.028 46.8326 115.04 46.4827 115.645 45.6635C119.386 40.5903 122.537 41.2334 122.657 47.0942C122.767 52.5466 118.299 53.797 114.464 49.3867Z" fill="#052F43"/>
<path d="M127 53.6901C127.877 52.8133 128.51 52.8249 129.611 53.7386C130.464 54.4466 131.303 54.5586 131.642 54.0096C131.96 53.4952 131.625 52.5804 130.897 51.9767C129.525 50.8374 124.266 52.5152 124.25 54.0978C124.238 55.2179 125.687 55.0032 127 53.6901Z" fill="white"/>
<path d="M123.935 57.8456C122.252 55.9338 121.452 55.025 121.489 54.1521C121.523 53.3613 122.244 52.6 123.619 51.1489C123.737 51.0237 123.861 50.8935 123.989 50.7576C126.896 47.6776 131.242 46.8115 131.242 49.3122C131.242 50.1179 132.142 51.2587 133.242 51.8474C136.052 53.3515 135.744 54.9685 131.944 58.6512C131.827 58.7654 131.712 58.8763 131.602 58.9839C129.805 60.728 128.905 61.6023 128.04 61.5687C127.17 61.5348 126.336 60.5831 124.663 58.6747C124.561 58.5576 124.455 58.4369 124.346 58.3126C124.203 58.1505 124.066 57.995 123.935 57.8456Z" fill="#CC9033"/>
<path d="M177.247 55.9168C176.72 49.8369 180.228 48.967 183.9 54.2671C187.383 59.2949 187.085 60.2409 182.016 60.2409C177.632 60.2409 177.62 60.2298 177.247 55.9168Z" fill="#CC9033"/>
<path d="M202.523 60.3411C201.662 59.7405 201.329 58.2653 201.644 56.4482C202.115 53.7382 201.947 53.5719 199.376 54.1936C197.826 54.5685 196.312 54.3503 195.946 53.6994C195.586 53.0584 195.885 52.534 196.61 52.534C197.336 52.534 198.469 51.5823 199.129 50.4191C201.074 46.9892 208.551 48.0462 209.723 51.9169C210.894 55.7846 209.779 60.6321 207.9 59.8385C207.116 59.5071 206.208 59.7098 205.883 60.2889C205.156 61.5834 204.323 61.5964 202.523 60.3411Z" fill="#01B2A6"/>
<path d="M195.411 61.3418C195.411 60.1307 195.824 59.1399 196.329 59.1399C196.834 59.1399 197.959 58.8392 198.829 58.4716C200.022 57.9675 200.411 58.5086 200.411 60.6735C200.411 63.0011 199.938 63.5438 197.911 63.5438C196.078 63.5438 195.411 62.9566 195.411 61.3418Z" fill="#037DBC"/>
<path d="M180.81 69.307C177.617 66.9593 179.048 61.3418 182.838 61.3418C185.348 61.3418 186.41 63.1691 186.41 67.4872C186.41 70.2073 183.375 71.1934 180.81 69.307Z" fill="#053042"/>
<path d="M188.324 70.5857C187.205 69.1021 187.266 68.2961 188.701 65.5421C190.967 61.1969 190.857 58.5087 188.337 56.5648C187.04 55.5646 186.665 54.6923 187.337 54.2354C187.927 53.8337 188.41 52.5434 188.41 51.3681C188.41 49.7666 189.105 49.2311 191.183 49.2311C193.757 49.2311 193.955 49.5501 193.955 53.6979C193.955 57.2606 193.63 58.071 192.347 57.7016C190.896 57.284 190.876 57.6785 192.137 61.7099C194.075 67.9012 194.329 68.1938 196.09 66.2555C197.931 64.228 199.783 64.656 200.233 67.2132C200.425 68.2995 199.915 69.0486 198.983 69.0486C198.118 69.0486 197.41 69.7918 197.41 70.7001C197.41 73.0314 190.098 72.9395 188.324 70.5857Z" fill="url(#paint1_linear_21_174)"/>
<path d="M185.411 72.902C185.411 71.9937 186.086 71.2506 186.911 71.2506C187.736 71.2506 188.411 71.9937 188.411 72.902C188.411 73.8103 187.736 74.5535 186.911 74.5535C186.086 74.5535 185.411 73.8103 185.411 72.902Z" fill="#037DBC"/>
<path d="M190.66 82.632C188.95 81.8722 189.082 77.3245 190.862 75.6983C193.086 73.6666 195.761 74.7868 196.853 78.2071C198.181 82.3633 195.065 84.5891 190.66 82.632Z" fill="#053042"/>
<path d="M179.16 80.1063C176.09 76.5219 175.792 74.804 177.733 71.8807C179.206 69.6634 183.41 71.4313 183.41 74.2677C183.41 75.5608 185.273 76.1444 188.127 75.7449C189.045 75.6164 189.006 76.4635 187.97 79.1927C186.13 84.0353 182.82 84.3786 179.16 80.1063Z" fill="#037DBC"/>
<path d="M176.921 83.3793C176.184 82.0654 177.119 80.0584 178.469 80.0584C179.686 80.0584 179.694 83.0383 178.479 83.8648C177.967 84.2131 177.267 83.9947 176.921 83.3793Z" fill="#01B2A6"/>
<path d="M202.61 84.4773C200.795 84.0038 199.014 83.2914 198.653 82.8939C197.534 81.6619 201.153 76.2244 203.34 75.8531C205.975 75.4054 206.015 73.8833 203.411 73.1335C201.087 72.4643 200.699 70.1496 202.911 70.1496C204.711 70.1496 204.88 67.8029 203.211 65.9659C202.278 64.9383 202.556 64.6485 204.461 64.6616C208.663 64.6905 209.541 65.96 207.847 69.5556C206.752 71.879 206.658 72.9405 207.498 73.5114C208.359 74.0978 208.36 75.2406 207.501 78.1081C206.872 80.207 206.642 82.743 206.991 83.7438C207.681 85.7222 207.501 85.7524 202.61 84.4773Z" fill="#01B2A6"/>
<path d="M213.607 124.508C213.607 122.732 212.85 120.937 211.767 120.145C209.99 118.845 209.998 118.659 212.019 114.574L214.11 110.348L215.867 113.028C216.832 114.502 218.661 116.103 219.929 116.585C221.372 117.133 222.026 118.006 221.677 118.915C221.37 119.715 221.62 121.305 222.231 122.448C223.133 124.133 223.053 124.526 221.808 124.526C220.964 124.526 220.273 124.076 220.273 123.526C220.273 122.976 219.549 122.526 218.665 122.526C217.449 122.526 217.209 123.135 217.684 125.026C218.22 127.162 217.969 127.526 215.959 127.526C214.009 127.526 213.607 127.01 213.607 124.508Z" fill="#037DBC"/>
<path d="M226.473 130.326C223.919 127.772 227.325 123.564 230.851 124.918C233.588 125.968 231.84 131.526 228.773 131.526C228.168 131.526 227.133 130.986 226.473 130.326Z" fill="#CC9033"/>
<path d="M204.273 134.511C202.94 133.635 202.94 133.417 204.273 132.541C206.666 130.97 208.273 131.366 208.273 133.526C208.273 135.686 206.666 136.082 204.273 134.511Z" fill="#01B2A6"/>
<path d="M214.555 136.757C209.24 134.714 208.564 133.026 212.313 131.156C217.735 128.451 220.722 128.26 222.739 130.488C223.753 131.609 225.188 132.526 225.928 132.526C226.668 132.526 227.273 132.976 227.273 133.526C227.273 134.076 226.377 134.526 225.282 134.526C224.186 134.526 222.728 135.426 222.041 136.526C220.573 138.877 220.106 138.891 214.555 136.757Z" fill="#037DBC"/>
<path d="M232.273 136.026C232.273 135.751 232.048 135.526 231.773 135.526C231.498 135.526 231.273 135.751 231.273 136.026C231.273 136.301 231.498 136.526 231.773 136.526C232.048 136.526 232.273 136.301 232.273 136.026Z" fill="white"/>
<path d="M225.88 140.7C224.822 138.987 226.54 135.526 228.449 135.526C229.548 135.526 230.11 135.071 229.744 134.478C229.388 133.902 230.243 132.283 231.645 130.882L234.194 128.333L237.234 130.498C240.701 132.967 236.924 139.881 233.323 137.656C233.075 137.503 232.527 138.311 232.105 139.452C231.334 141.536 226.942 142.416 225.88 140.7Z" fill="#01B2A6"/>
<path d="M207.539 145.927C207.869 145.597 205.581 143.196 202.456 140.591C202.039 140.244 201.643 139.915 201.265 139.601C197.323 136.328 195.461 134.782 195.513 133.303C195.558 131.98 197.135 130.71 200.121 128.304C200.441 128.047 200.777 127.776 201.129 127.49C204.839 124.485 207.964 121.688 208.074 121.276C208.183 120.863 208.611 120.638 209.023 120.776C209.436 120.913 209.656 121.376 209.514 121.804C209.371 122.232 209.934 122.842 210.764 123.161C213.458 124.194 212.665 129.39 209.7 130.134C208.246 130.499 206.636 130.289 206 129.653C203.577 127.23 202.472 128.49 202.605 133.526C202.734 138.459 203.765 139.634 206 137.399C206.636 136.763 208.246 136.553 209.7 136.918C212.705 137.672 213.453 142.859 210.71 143.912C209.85 144.242 209.426 144.965 209.769 145.519C210.111 146.073 209.615 146.526 208.665 146.526C207.716 146.526 207.209 146.256 207.539 145.927Z" fill="#035482"/>
<path d="M213.305 154.898C213.287 153.728 212.598 152.211 211.773 151.526C209.799 149.888 209.87 147.851 211.94 146.693C212.939 146.133 213.607 144.512 213.607 142.643C213.607 140.287 214.054 139.526 215.44 139.526C216.642 139.526 217.273 140.257 217.273 141.651C217.273 143.483 217.691 143.692 220.298 143.171C223.105 142.61 223.243 142.714 222.221 144.624C221.615 145.756 221.37 147.337 221.677 148.136C222.027 149.049 221.364 149.921 219.894 150.48C218.607 150.969 216.605 152.642 215.445 154.198C213.506 156.798 213.334 156.855 213.305 154.898Z" fill="#052F43"/>
<path d="M131.779 210.082C132.119 209.532 131.669 209.082 130.779 209.082C129.889 209.082 129.439 209.532 129.779 210.082C130.119 210.632 130.569 211.082 130.779 211.082C130.989 211.082 131.439 210.632 131.779 210.082Z" fill="white"/>
<path d="M127.279 210.082C127.279 209.532 126.604 209.082 125.779 209.082C124.954 209.082 124.279 209.532 124.279 210.082C124.279 210.632 124.954 211.082 125.779 211.082C126.604 211.082 127.279 210.632 127.279 210.082Z" fill="white"/>
<path d="M125.529 214.42C124.842 214.142 124.279 213.278 124.279 212.499C124.279 211.72 123.829 211.082 123.279 211.082C121.474 211.082 122.231 207.834 124.83 204.426C128.031 200.229 128.273 200.247 132.057 204.955L135.17 208.829L132.579 211.955C130.117 214.927 128.332 215.551 125.529 214.42Z" fill="#035482"/>
<path d="M133.886 219.5C131.446 213.141 135.627 208.754 140.561 212.497C142.85 214.234 141.242 218.322 137.622 219.972L137.463 220.044C135.789 220.807 135.092 221.125 134.669 220.908C134.366 220.754 134.203 220.327 133.923 219.597L133.886 219.5Z" fill="#053042"/>
<path d="M118.761 220.137C115.23 218.704 113.443 214.166 115.747 212.481C120.71 208.853 125.064 213.266 122.672 219.5C121.997 221.259 121.663 221.314 118.761 220.137Z" fill="#053042"/>
<path d="M138.096 224.371C137.653 222.07 141.489 218.082 144.144 218.082C145.968 218.082 151.075 221.835 150.112 222.468C143.824 226.606 138.683 227.42 138.096 224.371Z" fill="#037DBC"/>
<path d="M109.405 224.212C107.443 223.173 106.546 222.697 106.513 222.167C106.484 221.721 107.068 221.236 108.144 220.343C108.223 220.277 108.304 220.21 108.388 220.14C111.613 217.454 114.091 217.587 116.878 220.594C121.288 225.352 116.453 227.951 109.779 224.41C109.651 224.342 109.526 224.276 109.405 224.212Z" fill="#CC9033"/>
<path d="M124.529 235.498C120.1 232.008 124.207 227.655 130.149 229.541C131.704 230.034 131.931 229.711 131.524 227.585C131.136 225.552 130.759 225.269 129.658 226.182C128.617 227.046 127.911 227.022 126.779 226.082C125.53 225.045 125.279 225.174 125.279 226.853C125.279 228.692 123.523 230.082 121.197 230.082C119.291 230.082 120.347 226.298 122.403 225.76C124.108 225.314 124.401 224.702 123.888 222.658C123.249 220.115 125.942 216.082 128.279 216.082C131.056 216.082 134.252 221.363 132.231 222.612C130.898 223.436 132.935 226.082 134.902 226.082C136.974 226.082 136.61 230.067 134.529 230.161C133.484 230.208 133.282 230.443 134.029 230.744C136.765 231.848 134.637 234.459 128.279 237.796C128.004 237.94 126.317 236.906 124.529 235.498Z" fill="url(#paint2_linear_21_174)"/>
<path d="M37.9819 124.085C38.3186 123.024 38.0403 121.83 37.3583 121.408C36.6741 120.985 35.9523 121.17 35.7343 121.824C35.5185 122.471 34.6886 123.001 33.8901 123.001C32.7907 123.001 32.6771 122.555 33.4221 121.163C33.9632 120.152 34.1516 118.351 33.8406 117.163C33.4164 115.54 33.723 115.001 35.0692 115.001C36.0558 115.001 38.115 113.538 39.6452 111.751C42.1455 108.83 42.4315 108.716 42.468 110.628C42.4903 111.799 43.1836 113.316 44.0086 114.001C46.0112 115.663 45.9023 116.607 43.422 119.088C41.9605 120.549 41.5168 121.897 41.941 123.588C42.4644 125.673 42.1951 126.001 39.9603 126.001C37.8668 126.001 37.4897 125.636 37.9819 124.085Z" fill="#053042"/>
<path d="M47.2445 133.403C46.1714 132.33 47.6808 130.001 49.4493 130.001C51.8895 130.001 52.6798 131.09 51.3778 132.659C50.2097 134.066 48.259 134.418 47.2445 133.403Z" fill="#01B2A6"/>
<path d="M34.1412 135.486C33.8215 134.653 32.3108 133.474 30.7842 132.867C28.826 132.088 28.4504 131.613 29.5086 131.255C30.3336 130.975 32.0402 129.807 33.301 128.66C35.1015 127.021 35.9667 126.806 37.3338 127.66C38.291 128.258 40.522 129.065 42.2915 129.453C46.7004 130.422 46.3247 132.56 41.3208 134.978C36.3119 137.398 34.9128 137.497 34.1412 135.486Z" fill="#CC9033"/>
<path d="M24.5087 134.501C24.5087 134.226 24.2837 134.001 24.0087 134.001C23.7337 134.001 23.5087 134.226 23.5087 134.501C23.5087 134.776 23.7337 135.001 24.0087 135.001C24.2837 135.001 24.5087 134.776 24.5087 134.501Z" fill="white"/>
<path d="M23.677 137.927C23.255 136.786 22.5891 135.999 22.1971 136.177C21.3325 136.57 15.5157 132.779 15.5116 131.819C15.5016 129.534 21.6522 126.815 22.9174 128.545C24.0564 130.103 24.1554 129.954 23.7621 127.274C23.2182 123.568 24.6676 122.485 27.8657 124.207C30.4605 125.603 29.9972 130.001 27.2552 130.001C26.5304 130.001 25.9373 130.901 25.9373 132.001C25.9373 133.225 26.604 134.001 27.6556 134.001C29.4881 134.001 31.0527 137.312 30.0143 138.992C28.8624 140.856 24.4885 140.121 23.677 137.927Z" fill="#01B2A6"/>
<path d="M39.718 151.964C39.0185 150.844 37.305 149.494 35.9103 148.963C33.9524 148.219 33.5226 147.533 34.0243 145.952C34.3902 144.799 34.1006 143.214 33.3611 142.323C32.1948 140.918 32.409 140.82 35.2784 141.45C38.1508 142.081 38.5088 141.917 38.5088 139.972C38.5088 138.166 38.9247 137.889 40.8947 138.383C42.725 138.842 43.4018 138.518 43.8011 136.991C44.3571 134.865 48.8628 134.147 50.0088 136.001C51.6429 138.645 53.2195 136.827 53.0395 132.506C52.8226 127.3 52.1356 126.236 50.088 127.935C47.6585 129.952 44.2296 128.825 43.4101 125.741C42.8319 123.566 43.0883 122.761 44.6208 121.941C45.69 121.369 46.3007 120.473 45.9778 119.951C45.655 119.428 46.1673 119.001 47.1165 119.001C48.0656 119.001 48.571 119.272 48.2396 119.604C47.9081 119.935 50.5331 122.663 54.0729 125.666C54.435 125.973 54.7805 126.265 55.1092 126.543C58.3412 129.272 59.9572 130.636 59.9572 132.001C59.9572 133.366 58.3412 134.73 55.1092 137.459C54.7804 137.737 54.435 138.028 54.0729 138.336C50.5331 141.339 47.9081 144.067 48.2396 144.398C48.571 144.73 48.0922 145.001 47.1755 145.001C46.2588 145.001 45.5088 144.519 45.5088 143.93C45.5088 142.805 43.0616 140.001 42.0803 140.001C40.6977 140.001 41.6989 143.1 43.6767 144.943C45.8341 146.953 45.8354 146.979 43.9493 150.482C41.7438 154.577 41.4204 154.69 39.718 151.964Z" fill="#035482"/>
<path d="M176.779 185.638C176.453 184.737 176.438 183.735 176.744 183.41C177.62 182.481 179.434 184.056 179.434 185.746C179.434 187.781 177.527 187.703 176.779 185.638Z" fill="#CC9033"/>
<path d="M178.119 195.594C175.582 194.089 176.087 190.661 179.357 187.193C183.095 183.228 186.127 183.161 187.599 187.009L188.715 189.926L189.369 187.274C190.423 183.008 196.934 183.365 196.934 187.689C196.934 191.246 194.545 193.292 191.82 192.069C187.718 190.229 183.434 190.687 183.434 192.966C183.434 195.015 180.001 196.712 178.119 195.594Z" fill="#035482"/>
<path d="M203.826 200.13C205.363 198.329 205.378 197.974 203.982 196.492C202.036 194.429 202.023 193.639 203.934 193.639C206.205 193.639 205.73 191.714 203.363 191.327C200.841 190.914 197.558 185.624 198.964 184.242C200.401 182.83 207.769 181.598 207.013 182.896C206.673 183.479 206.834 186.015 207.369 188.533C207.908 191.064 207.956 193.253 207.476 193.431C206.999 193.609 207.243 195.041 208.017 196.613C209.605 199.836 207.973 202.125 204.088 202.125C202.229 202.125 202.215 202.019 203.826 200.13Z" fill="url(#paint3_linear_21_174)"/>
<path d="M197.185 207.759C194.351 206.973 194.973 203.186 197.935 203.186C199.935 203.186 200.435 203.716 200.435 205.838C200.435 208.53 200.286 208.618 197.185 207.759Z" fill="#CC9033"/>
<path d="M188.436 215.322C188.429 211.74 185.477 210.026 183.523 212.467C182.473 213.781 180.673 214.854 179.524 214.854C176.424 214.854 176.436 206.892 179.537 206.032C181.5 205.488 181.537 205.291 180.085 203.093C177.927 199.825 179.548 196.821 183.469 196.821C186.926 196.821 187.543 199.973 184.877 204.01C183.468 206.144 183.468 206.368 184.877 206.368C185.767 206.368 186.434 207.277 186.434 208.49C186.434 210.894 187.471 211.208 189.234 209.338C191.378 207.064 189.666 200.46 185.652 195.518C184.319 193.877 184.355 193.605 185.988 192.94C186.992 192.532 187.961 192.663 188.14 193.233C188.319 193.804 189.999 194.08 191.874 193.848C194.424 193.532 195.734 193.987 197.08 195.655C198.069 196.88 199.491 197.882 200.24 197.882C200.988 197.882 201.416 198.478 201.189 199.208C200.615 201.059 196.331 201.543 195.355 199.867C194.766 198.857 194.29 199.189 193.587 201.1C193.378 201.667 193.182 202.197 193 202.693C191.205 207.56 190.651 209.064 190.993 209.346C191.145 209.472 191.477 209.354 191.956 209.186C192.065 209.146 192.181 209.105 192.306 209.064C193.927 208.517 194.165 208.985 194.078 212.54C193.981 216.455 188.444 219.186 188.436 215.322Z" fill="url(#paint4_radial_21_174)"/>
<path d="M204.434 213.263C204.434 212.971 204.209 212.733 203.934 212.733C203.659 212.733 203.434 212.971 203.434 213.263C203.434 213.555 203.659 213.793 203.934 213.793C204.209 213.793 204.434 213.555 204.434 213.263Z" fill="white"/>
<path d="M203.935 217.176C201.735 216.979 199.575 216.138 199.135 215.306C198.696 214.474 197.571 213.786 196.635 213.777C195.182 213.764 195.151 213.616 196.427 212.76C197.247 212.211 198.861 212.011 200.013 212.318C201.862 212.81 202.055 212.493 201.658 209.621C201.411 207.832 201.597 206.3 202.072 206.217C208.727 205.053 209.207 205.304 209.916 210.318C210.754 216.241 209.502 217.676 203.935 217.176Z" fill="#CC9033"/>
<path d="M78.7599 183.137C79.378 181.047 81.5307 180.701 81.5307 182.692C81.5307 183.673 80.8182 184.477 79.9474 184.477C79.0766 184.477 78.5422 183.875 78.7599 183.137Z" fill="#037DBC"/>
<path d="M61.3777 188.495C59.6734 184.277 60.9404 182.015 64.7737 182.431C67.4946 182.727 68.083 183.298 68.3487 185.905C68.5236 187.622 69.0861 188.733 69.5987 188.376C70.1112 188.018 70.5306 188.318 70.5306 189.041C70.5306 189.764 69.87 190.069 69.0626 189.721C68.2552 189.372 67.3287 189.571 67.0036 190.164C65.8654 192.24 62.4861 191.238 61.3777 188.495Z" fill="#CC9033"/>
<path d="M75.7806 193.879C75.0931 193.565 74.5306 192.713 74.5306 191.983C74.5306 191.254 73.6306 190.023 72.5306 189.249C69.9848 187.456 69.9535 183.777 72.4712 182.258C75.4903 180.436 82.0632 187.569 81.1492 191.675C80.5169 194.516 78.7631 195.235 75.7806 193.879Z" fill="#052F43"/>
<path d="M50.7437 200.435C49.7899 199.753 49.6339 197.64 50.1414 192.277C50.5181 188.297 50.8723 183.867 50.9285 182.431C51.0354 179.704 56.5395 179.636 59.0005 182.332C60.4217 183.888 57.1328 189.422 54.3445 190.166C52.2009 190.737 52.1717 190.843 53.948 191.613C55.4093 192.246 55.5877 192.757 54.698 193.76C53.2408 195.403 53.1657 199.135 54.5898 199.135C55.1723 199.135 55.3707 199.643 55.0308 200.263C54.2872 201.619 52.4996 201.692 50.7437 200.435Z" fill="#035482"/>
<path d="M57.5307 205.54C57.5307 202.481 60.2411 200.612 61.9255 202.512C63.2621 204.019 61.5371 207.432 59.1735 207.956C58.0064 208.216 57.5307 207.515 57.5307 205.54Z" fill="#CC9033"/>
<path d="M48.0447 214.971C46.4897 209.446 48.4575 204.991 52.373 205.17C55.7605 205.325 56.0308 205.594 56.0308 208.813C56.0308 212.134 56.2158 212.291 60.1436 212.291C63.7655 212.291 64.1939 212.021 63.7329 210.033C63.3268 208.282 63.5818 207.937 64.8701 208.494C66.8266 209.341 66.9923 207.73 65.459 202.771C64.4904 199.637 64.069 199.362 61.0861 199.908C57.9334 200.484 54.6656 198.145 57.2613 197.17C57.8578 196.946 59.3982 195.732 60.6844 194.475C62.2949 192.9 64.0359 192.321 66.2768 192.617C68.0665 192.851 69.5308 192.639 69.5308 192.143C69.5308 191.648 70.2058 191.242 71.0308 191.242C71.8558 191.242 72.5308 192.003 72.5308 192.934C72.5308 193.864 72.0808 194.625 71.5308 194.625C70.9808 194.625 70.5308 195.031 70.5308 195.526C70.5308 196.022 72.0661 196.225 73.9426 195.978C78.2046 195.417 80.347 198.62 78.0239 202.081C76.0646 204.999 76.1844 205.901 78.5308 205.901C80.1975 205.901 80.5308 206.653 80.5308 210.411C80.5308 216.006 77.7513 216.608 74.0145 211.821C71.1795 208.189 70.8593 205.901 73.1858 205.901C74.7258 205.901 74.7258 205.758 73.1858 203.838C72.2756 202.704 71.5308 201.182 71.5308 200.456C71.5308 198.141 69.8921 199.036 68.6913 202.007C66.9945 206.206 67.2694 209.038 69.4499 209.818C71.1802 210.437 71.2354 210.796 70.0112 213.456C68.5264 216.683 62.8645 218.506 63.9152 215.419C64.3003 214.287 63.7516 213.794 62.1064 213.794C60.8075 213.794 59.4858 214.555 59.1692 215.485C58.2279 218.251 48.8459 217.817 48.0447 214.971Z" fill="url(#paint5_linear_21_174)"/>
<path d="M157.426 60.9598C154.3 58.0481 154.694 57.2408 159.181 57.3585C162.194 57.4375 163.245 57.9204 163.633 59.4038C164.689 63.4416 161.065 64.35 157.426 60.9598Z" fill="#01B2A6"/>
<path d="M162.03 68.9419C160.112 67.8238 160.696 64.9987 162.845 64.9987C163.664 64.9987 164.238 66.0285 164.238 67.4987V67.7861C164.24 69.0333 164.24 69.6452 163.979 69.7925C163.727 69.9343 163.233 69.6451 162.262 69.0775C162.187 69.0339 162.11 68.9887 162.03 68.9419Z" fill="#052F43"/>
<path d="M152.732 72.1596C152.461 71.8877 152.238 70.2553 152.238 68.5319C152.238 66.8086 151.698 64.8586 151.038 64.1986C150.326 63.4862 150.256 62.9986 150.867 62.9986C151.434 62.9986 151.861 62.0317 151.817 60.8498C151.774 59.668 152.245 58.524 152.865 58.3076C154.404 57.77 155.553 61.0842 154.271 62.3658C152.602 64.035 153.064 64.845 155.88 65.1822C160.112 65.6891 160.391 71.6024 156.212 72.2158C154.57 72.4567 153.004 72.4315 152.732 72.1596Z" fill="#CC9033"/>
<path d="M141.238 75.3589C141.238 74.4571 140.494 73.1753 139.585 72.5107C137.44 70.9416 138.677 68.9987 141.822 68.9987C143.762 68.9987 144.416 68.3588 144.888 65.9987C145.299 63.9454 146.08 62.9987 147.363 62.9987C149.501 62.9987 149.773 64.0633 148.071 65.7659C147.181 66.6556 147.3 67.0853 148.571 67.5729C151.562 68.7209 149.463 72.8916 144.456 75.7487C141.61 77.3727 141.238 77.3277 141.238 75.3589Z" fill="#037DBC"/>
<path d="M159.479 78.0122C157.754 75.2503 157.881 72.6475 159.706 73.3479C160.513 73.6578 161.44 73.4809 161.765 72.9549C162.792 71.293 165.238 71.9203 165.238 73.8456C165.238 77.9424 161.241 80.8341 159.479 78.0122Z" fill="#037DBC"/>
<path d="M148.905 85.332C148.538 84.9654 148.238 83.8404 148.238 82.832C148.238 81.8237 147.625 80.9987 146.877 80.9987C145.982 80.9987 145.671 80.1826 145.971 78.6178C146.429 76.2205 153.707 74.0532 155.411 75.8064C156.859 77.2956 155.031 81.9987 153.005 81.9987C151.497 81.9987 151.134 82.491 151.528 83.9987C152.034 85.9361 150.36 86.7873 148.905 85.332Z" fill="#053042"/>
<path d="M101.572 62.5854C100.925 60.8985 101.749 58.9249 103.101 58.9249C104.676 58.9249 105.029 61.7792 103.601 62.9644C102.474 63.8996 102.046 63.8195 101.572 62.5854Z" fill="#01B2A6"/>
<path d="M104.149 64.9249C104.149 64.3749 104.599 63.9249 105.149 63.9249C105.699 63.9249 106.149 64.3749 106.149 64.9249C106.149 65.4749 105.699 65.9249 105.149 65.9249C104.599 65.9249 104.149 65.4749 104.149 64.9249Z" fill="#01B2A6"/>
<path d="M92.1488 67.925C92.1488 65.6512 94.6567 65.2002 95.4729 67.3272C96.1005 68.9627 95.363 69.925 93.4821 69.925C92.7488 69.925 92.1488 69.025 92.1488 67.925Z" fill="#01B2A6"/>
<path d="M97.4668 70.8177C98.1975 68.0235 96.5718 63.925 94.7328 63.925C92.7773 63.925 91.8885 62.3211 92.6006 60.0776C93.0949 58.5201 97.8657 57.8034 100.967 58.8207C101.142 58.8781 100.346 60.2434 99.199 61.8548C97.0831 64.8263 97.7864 66.6619 100.624 65.5731C102.562 64.8295 104.191 67.1473 103.932 70.2786C103.742 72.5784 103.268 72.925 100.314 72.925C97.3504 72.925 96.9862 72.6555 97.4668 70.8177Z" fill="#052F43"/>
<path d="M113.778 78.1132C113.325 77.3918 111.976 76.4296 110.78 75.975C107.254 74.6341 105.255 70.0514 107.486 68.4204C108.613 67.5965 108.878 66.8759 108.208 66.4619C106.466 65.3849 107.007 63.9249 109.149 63.9249C110.457 63.9249 111.149 64.5916 111.149 65.8535C111.149 68.3809 113.814 70.9904 115.67 70.2787C117.755 69.4785 118.742 72.7538 116.859 74.2229C116.011 74.884 115.157 76.3249 114.96 77.4249C114.693 78.9138 114.391 79.0897 113.778 78.1132Z" fill="#CC9033"/>
<path d="M93.3939 79.6748C89.6636 75.0122 91.8721 71.3868 96.5683 74.4638C99.3942 76.3154 100.026 78.9248 97.6491 78.9248C96.8241 78.9248 96.1491 79.3748 96.1491 79.9248C96.1491 81.3159 94.594 81.1748 93.3939 79.6748Z" fill="#CC9033"/>
<path d="M105.149 85.0083C105.149 83.5917 104.509 82.925 103.149 82.925C101.518 82.925 101.149 82.2583 101.149 79.3084C101.149 76.0458 101.369 75.7508 103.399 76.2947C104.636 76.6264 106.709 76.9039 108.006 76.9114C109.687 76.9214 110.198 77.3549 109.787 78.425C109.471 79.25 109.648 79.925 110.18 79.925C110.713 79.925 111.149 80.375 111.149 80.925C111.149 81.475 110.505 81.925 109.718 81.925C108.932 81.925 108.144 82.9022 107.968 84.0967C107.547 86.9609 105.149 87.7363 105.149 85.0083Z" fill="#035482"/>
<path d="M70.2723 98.7824C69.0237 95.4984 69.0385 95.3475 70.6084 95.3475C72.4599 95.3475 76.4595 99.2756 75.7602 100.407C74.5762 102.323 71.2432 101.336 70.2723 98.7824Z" fill="#052F43"/>
<path d="M64.2968 100.348C64.2968 99.7975 64.7468 99.3475 65.2968 99.3475C65.8468 99.3475 66.2968 99.7975 66.2968 100.348C66.2968 100.898 65.8468 101.348 65.2968 101.348C64.7468 101.348 64.2968 100.898 64.2968 100.348Z" fill="#035482"/>
<path d="M67.2134 107.167C66.0183 102.584 68.8329 98.8788 71.2743 101.821C73.0293 103.935 72.0976 106.802 69.5365 107.167C68.3046 107.343 67.2592 107.343 67.2134 107.167Z" fill="#01B2A6"/>
<path d="M58.0467 107.725C60.3215 106.735 59.5317 103.346 57.0877 103.609C53.8026 103.964 53.6211 100.703 56.7639 97.7903C58.2136 96.4468 59.7755 95.3475 60.2347 95.3475C61.4999 95.3475 62.1265 101.331 60.8735 101.447C60.2813 101.502 60.9217 101.86 62.2967 102.242C66.832 103.504 65.7243 107.799 60.7967 108.058C58.5967 108.174 57.3592 108.024 58.0467 107.725Z" fill="#CC9033"/>
<path d="M60.2968 112.348C60.2968 111.798 60.7203 111.348 61.2378 111.348C61.7553 111.348 62.4569 111.798 62.7968 112.348C63.1367 112.898 62.7133 113.348 61.8558 113.348C60.9984 113.348 60.2968 112.898 60.2968 112.348Z" fill="#035482"/>
<path d="M73.2293 115.098C72.1236 111.002 72.5516 108.514 74.4473 108.018C75.8526 107.651 76.3568 106.946 75.9581 105.907C75.5344 104.803 75.9661 104.348 77.4352 104.348C78.8831 104.348 79.3341 104.808 78.9265 105.87C78.6049 106.708 79.2312 108.282 80.3195 109.37C82.531 111.582 82.6652 112.217 81.3577 114.283C80.594 115.49 80.1912 115.505 78.8306 114.376C77.6046 113.358 76.9313 113.313 76.0544 114.19C75.015 115.229 73.4046 115.747 73.2293 115.098Z" fill="#035482"/>
<path d="M64.7884 119.334C61.8717 114.615 66.0568 107.178 69.3611 111.208C71.8206 114.208 71.8047 115.402 69.2966 116.058C68.1897 116.347 67.2966 117.422 67.2966 118.464C67.2966 120.484 65.8164 120.997 64.7884 119.334Z" fill="#053042"/>
<path d="M59.434 153.278C59.434 152.728 59.884 152.278 60.434 152.278C60.984 152.278 61.434 152.728 61.434 153.278C61.434 153.828 60.984 154.278 60.434 154.278C59.884 154.278 59.434 153.828 59.434 153.278Z" fill="#01B2A6"/>
<path d="M63.4448 151.31C62.3843 148.097 62.3772 147.051 63.4072 145.81C65.1618 143.696 66.4341 143.893 66.4341 146.278C66.4341 147.378 67.061 148.278 67.8271 148.278C69.9534 148.278 70.4568 150.801 68.802 153.163C66.5902 156.321 64.9062 155.738 63.4448 151.31Z" fill="#053042"/>
<path d="M75.434 158.845C75.434 158.057 74.534 157.127 73.434 156.778C72.0453 156.337 71.434 155.265 71.434 153.27C71.434 149.465 73.1626 148.562 75.6623 151.062C78.2386 153.638 79.1718 160.278 76.9576 160.278C76.1196 160.278 75.434 159.633 75.434 158.845Z" fill="#01B2A6"/>
<path d="M63.434 164.278C63.434 163.728 63.884 163.278 64.434 163.278C64.984 163.278 65.434 163.728 65.434 164.278C65.434 164.828 64.984 165.278 64.434 165.278C63.884 165.278 63.434 164.828 63.434 164.278Z" fill="#01B2A6"/>
<path d="M59.434 164.778C59.434 164.503 59.209 164.278 58.934 164.278C58.659 164.278 58.434 164.503 58.434 164.778C58.434 165.053 58.659 165.278 58.934 165.278C59.209 165.278 59.434 165.053 59.434 164.778Z" fill="white"/>
<path d="M56.3158 167.528C56.2507 167.115 56.2507 166.441 56.3158 166.028C56.3809 165.615 55.7592 165.278 54.9342 165.278C53.2773 165.278 53.1772 164.839 54.0718 161.5C54.5027 159.892 55.1989 159.386 56.4398 159.78C58.1825 160.333 59.9503 157.922 58.9677 156.332C58.7076 155.911 59.6128 155.781 60.9793 156.042C62.3457 156.303 63.6996 156.898 63.9878 157.365C64.276 157.831 65.8227 157.95 67.425 157.63C70.6057 156.994 72.9091 161.203 70.6282 163.484C69.0777 165.034 66.4342 163.664 66.4342 161.309C66.4342 158.888 64.9021 158.616 64.0319 160.884C63.5829 162.054 62.6712 162.321 60.6749 161.869C58.2482 161.319 58.1292 161.401 59.6363 162.588C61.8345 164.319 60.9171 168.278 58.3176 168.278C57.2818 168.278 56.3809 167.941 56.3158 167.528Z" fill="url(#paint6_linear_21_174)"/>
<path d="M68.4563 168.528C68.4685 168.115 69.3109 166.695 70.3283 165.372C72.2183 162.913 75.7118 162.98 75.1933 165.465C74.7579 167.551 68.3995 170.442 68.4563 168.528Z" fill="#01B2A6"/>
<path d="M101.512 185.816C101.512 183.288 101.921 182.55 103.261 182.656C104.369 182.744 105.128 181.97 105.331 180.545C105.734 177.707 107.512 177.579 107.512 180.389C107.512 181.649 108.316 182.693 109.533 183.011C111.111 183.424 111.306 183.838 110.421 184.904C109.798 185.655 109.522 186.88 109.808 187.625C110.195 188.634 109.202 188.998 105.92 189.048C101.586 189.113 101.512 189.058 101.512 185.816Z" fill="#052F43"/>
<path d="M91.5116 191.449C91.5116 190.355 94.5288 184.295 95.0734 184.295C95.3018 184.295 96.3381 185.022 97.3762 185.911C99.5043 187.733 99.1049 191.737 96.8802 190.883C96.1275 190.594 95.5116 190.794 95.5116 191.326C95.5116 191.859 94.6116 192.295 93.5116 192.295C92.4116 192.295 91.5116 191.914 91.5116 191.449Z" fill="#CC9033"/>
<path d="M97.5116 195.795C97.5116 193.44 97.9757 192.295 98.9298 192.295C99.7098 192.295 101.041 192.029 101.888 191.704C103.941 190.916 105.216 195.741 103.501 197.808C100.984 200.84 97.5116 199.673 97.5116 195.795Z" fill="#035482"/>
<path d="M92.5116 196.833C92.5116 194.509 92.7362 194.345 94.5724 195.328C96.9008 196.574 96.6871 198.632 94.1787 199.118C92.966 199.354 92.5116 198.731 92.5116 196.833Z" fill="#052F43"/>
<path d="M108.055 200.364C107.738 199.852 107.937 199.151 108.496 198.805C110.021 197.863 109.718 196.295 108.012 196.295C106.206 196.295 106.188 196.1 107.683 192.818C108.328 191.404 109.903 189.984 111.183 189.663C112.464 189.341 113.512 188.677 113.512 188.187C113.512 187.696 113.962 187.295 114.512 187.295C115.062 187.295 115.512 188.372 115.512 189.688C115.512 191.004 116.216 192.351 117.075 192.681C119.301 193.535 117.856 195.295 114.928 195.295C112.988 195.295 112.334 195.935 111.862 198.295C111.284 201.185 109.246 202.293 108.055 200.364Z" fill="#01B2A6"/>
<path d="M101.982 204.247C101.59 203.612 102.169 202.193 103.269 201.093C104.596 199.766 105.498 199.464 105.949 200.194C106.324 200.8 106.134 201.295 105.527 201.295C104.92 201.295 104.556 202.036 104.718 202.941C105.068 204.904 102.999 205.892 101.982 204.247Z" fill="#052F43"/>
<path d="M93.5147 206.127C93.5127 205.759 93.2519 204.781 92.9342 203.953C91.8229 201.057 96.5855 199.668 98.6948 202.273C101.442 205.665 100.97 206.955 97.0147 206.87C95.0914 206.829 93.5164 206.494 93.5147 206.127Z" fill="#037DBC"/>
<path d="M146.439 187.671C146.687 187.024 146.241 185.956 145.449 185.299C143.387 183.588 143.672 182.447 146.008 183.058C147.632 183.483 148.008 183.089 148.008 180.965C148.008 179.305 148.557 178.348 149.508 178.348C150.341 178.348 151.008 179.237 151.008 180.348C151.008 181.702 151.675 182.348 153.071 182.348C154.797 182.348 155.083 182.88 154.821 185.598C154.522 188.707 154.323 188.848 150.248 188.848C147.393 188.848 146.137 188.46 146.439 187.671Z" fill="#CC9033"/>
<path d="M161.008 191.378C161.008 190.846 160.333 190.669 159.508 190.985C157.529 191.745 157.443 187.061 159.406 185.432C160.513 184.513 161.241 184.827 162.906 186.944C165.551 190.307 165.59 192.347 163.008 192.347C161.908 192.347 161.008 191.911 161.008 191.378Z" fill="#052F43"/>
<path d="M161.066 197.918C160.117 196.774 160.292 196.266 161.944 195.383C163.777 194.401 164.008 194.561 164.008 196.813C164.008 199.642 162.856 200.075 161.066 197.918Z" fill="#01B2A6"/>
<path d="M153.258 198.685C151.913 198.142 151.515 192.769 152.764 191.998C155.384 190.379 158.802 192.648 158.708 195.944C158.611 199.364 156.977 200.185 153.258 198.685Z" fill="#037DBC"/>
<path d="M144.893 200.597C144.829 200.184 144.673 199.397 144.545 198.847C144.417 198.297 144.244 197.285 144.16 196.597C144.077 195.909 142.91 195.347 141.567 195.347C138.321 195.347 137.453 193.714 139.98 192.362C141.095 191.765 142.008 190.413 142.008 189.358C142.008 186.75 147.377 189.667 148.956 193.133C150.322 196.13 150.292 196.347 148.508 196.347C146.801 196.347 146.499 197.915 148.024 198.857C148.583 199.203 148.782 199.904 148.465 200.416C147.779 201.527 145.057 201.665 144.893 200.597Z" fill="#052F43"/>
<path d="M151.744 204.75C151.415 204.421 151.388 203.521 151.684 202.75C151.98 201.979 151.697 201.348 151.056 201.348C150.415 201.348 150.196 200.853 150.57 200.247C151.022 199.517 151.924 199.819 153.251 201.146C154.351 202.246 154.945 203.642 154.57 204.247C153.819 205.463 152.662 205.669 151.744 204.75Z" fill="#035482"/>
<path d="M155.704 206.71C154.169 205.175 159.04 200.423 161.294 201.257C162.512 201.708 163.463 202.587 163.408 203.212L163.407 203.225C163.187 205.721 163.098 206.737 162.652 206.93C162.346 207.063 161.873 206.81 161.075 206.383C159.785 205.693 158.922 205.677 158.51 206.344C157.802 207.489 156.636 207.641 155.704 206.71Z" fill="#035482"/>
<path d="M194.149 155.219C194.149 154.669 194.599 154.219 195.149 154.219C195.699 154.219 196.149 154.669 196.149 155.219C196.149 155.769 195.699 156.219 195.149 156.219C194.599 156.219 194.149 155.769 194.149 155.219Z" fill="#035482"/>
<path d="M186.724 155.302C184.938 153.328 185.924 149.219 188.184 149.219C188.715 149.219 189.149 148.506 189.149 147.636C189.149 145.108 191.468 146.579 192.282 149.624C193.794 155.277 190.109 159.042 186.724 155.302Z" fill="#01B2A6"/>
<path d="M177.519 160.696C177.844 159.85 177.191 158.261 176.049 157.119C173.477 154.547 174.279 151.758 177.359 152.564C178.561 152.878 180.111 152.665 180.803 152.091C182.598 150.602 183.677 151.612 183.937 155.025C184.107 157.255 183.669 158.111 182.152 158.508C180.809 158.859 180.344 159.563 180.752 160.626C181.198 161.788 180.763 162.219 179.149 162.219C177.577 162.219 177.105 161.777 177.519 160.696Z" fill="#037DBC"/>
<path d="M192.301 163.334C190.072 161.922 191.355 158.719 194.149 158.719C195.774 158.719 196.746 159.363 196.984 160.599C197.295 162.217 195.739 164.188 194.149 164.188C193.874 164.188 193.042 163.804 192.301 163.334Z" fill="#037DBC"/>
<path d="M184.533 164.777C183.447 161.946 184.604 159.719 187.163 159.719C189.211 159.719 189.601 160.152 189.374 162.175C188.969 165.796 185.616 167.599 184.533 164.777Z" fill="#053042"/>
<path d="M190.149 166.219C190.149 165.669 190.599 165.219 191.149 165.219C191.699 165.219 192.149 165.669 192.149 166.219C192.149 166.769 191.699 167.219 191.149 167.219C190.599 167.219 190.149 166.769 190.149 166.219Z" fill="#035482"/>
<path d="M197.149 166.719C197.149 166.444 196.924 166.219 196.649 166.219C196.374 166.219 196.149 166.444 196.149 166.719C196.149 166.994 196.374 167.219 196.649 167.219C196.924 167.219 197.149 166.994 197.149 166.719Z" fill="white"/>
<path d="M194.96 168.414C194.475 164.215 200.169 160.224 201.542 163.801C202.62 166.61 202.229 168.187 200.608 167.565C199.684 167.21 199.184 167.462 199.358 168.192C199.518 168.863 198.664 169.793 197.46 170.26C195.571 170.993 195.229 170.741 194.96 168.414Z" fill="#053042"/>
<path d="M182.399 169.859C179.757 168.551 179.46 166.421 181.794 165.525C183.514 164.865 186.149 167.518 186.149 169.91C186.149 171.416 185.525 171.407 182.399 169.859Z" fill="#035482"/>
<path d="M190.206 101.348C190.206 100.798 190.656 100.348 191.206 100.348C191.756 100.348 192.206 100.798 192.206 101.348C192.206 101.898 191.756 102.348 191.206 102.348C190.656 102.348 190.206 101.898 190.206 101.348Z" fill="#01B2A6"/>
<path d="M180.659 101.271C179.849 99.961 183.523 96.3475 185.664 96.3475C187.605 96.3475 187.595 96.8246 185.591 99.8827C183.889 102.48 181.774 103.075 180.659 101.271Z" fill="#035482"/>
<path d="M191.873 108.681C190.308 107.116 191.382 104.45 193.956 103.51C195.469 102.958 196.221 102.47 195.629 102.427C194.5 102.344 194.939 96.3229 196.07 96.3794C197.835 96.4676 200.251 99.17 199.009 99.6676C198.292 99.9548 198.719 100.225 199.956 100.269C201.673 100.329 202.206 100.944 202.206 102.867C202.206 105.091 201.897 105.308 199.561 104.722C197.101 104.104 196.963 104.242 197.58 106.703C198.235 109.313 193.979 110.788 191.873 108.681Z" fill="#037DBC"/>
<path d="M184.69 107.689C183.584 106.583 183.471 105.721 184.243 104.278C185.436 102.049 189.206 101.659 189.206 103.766C189.206 104.546 189.456 105.837 189.763 106.634C190.554 108.696 186.533 109.532 184.69 107.689Z" fill="#CC9033"/>
<path d="M193.398 113.273C193.595 112.681 194.184 112.198 194.706 112.198C195.229 112.198 195.817 112.681 196.014 113.273C196.211 113.864 195.623 114.348 194.706 114.348C193.789 114.348 193.201 113.864 193.398 113.273Z" fill="#035482"/>
<path d="M180.664 115.279C180.301 114.692 179.397 114.444 178.656 114.728C176.919 115.395 175.815 111.968 177.016 109.635C177.522 108.652 177.734 107.285 177.488 106.597C176.753 104.549 179.047 105.182 180.206 107.347C180.795 108.447 181.891 109.347 182.641 109.347C183.534 109.347 184.006 110.557 184.006 112.847C184.006 116.293 182.133 117.656 180.664 115.279Z" fill="#01B2A6"/>
<path d="M189.206 119.431C189.206 118.284 188.559 117.348 187.765 117.348C185.399 117.348 184.929 115.419 186.654 112.787C189.23 108.855 192.416 111.114 192.01 116.584C191.7 120.769 189.206 123.301 189.206 119.431Z" fill="#035482"/>
<defs>
<linearGradient id="paint0_linear_21_174" x1="131.769" y1="51.8312" x2="131.769" y2="29.1989" gradientUnits="userSpaceOnUse">
<stop offset="0.557692" stop-color="#01B2A6"/>
<stop offset="0.800254" stop-color="#037DBC"/>
</linearGradient>
<linearGradient id="paint1_linear_21_174" x1="193.642" y1="72.4007" x2="193.642" y2="49.2311" gradientUnits="userSpaceOnUse">
<stop stop-color="#01B2A6"/>
<stop offset="0.524038" stop-color="#037DBC"/>
</linearGradient>
<linearGradient id="paint2_linear_21_174" x1="128.242" y1="216.082" x2="128.242" y2="237.809" gradientUnits="userSpaceOnUse">
<stop stop-color="#01B2A6"/>
<stop offset="1" stop-color="#037DBC"/>
</linearGradient>
<linearGradient id="paint3_linear_21_174" x1="203.623" y1="182.348" x2="203.623" y2="202.125" gradientUnits="userSpaceOnUse">
<stop stop-color="#037DBC"/>
<stop offset="1" stop-color="#053042"/>
</linearGradient>
<radialGradient id="paint4_radial_21_174" cx="0" cy="0" r="1" gradientUnits="userSpaceOnUse" gradientTransform="translate(189.228 204.946) rotate(90) scale(12.2431 12.0224)">
<stop stop-color="#01B2A6"/>
<stop offset="0.711538" stop-color="#037DBC"/>
</radialGradient>
<linearGradient id="paint5_linear_21_174" x1="64.0212" y1="191.242" x2="64.0212" y2="217.348" gradientUnits="userSpaceOnUse">
<stop stop-color="#037DBC"/>
<stop offset="0.701315" stop-color="#01B2A6"/>
</linearGradient>
<linearGradient id="paint6_linear_21_174" x1="71.5473" y1="162.093" x2="53.5116" y2="162.093" gradientUnits="userSpaceOnUse">
<stop stop-color="#01B2A6"/>
<stop offset="0.673077" stop-color="#035482"/>
</linearGradient>
</defs>
</svg>
